<?xml version="1.0" standalone="no"?>
<!DOCTYPE svg PUBLIC "-//W3C//DTD SVG 20010904//EN"
 "http://www.w3.org/TR/2001/REC-SVG-20010904/DTD/svg10.dtd">
<svg version="1.0" xmlns="http://www.w3.org/2000/svg"
 width="776.000000pt" height="74.000000pt" viewBox="0 0 776.000000 74.000000"
 preserveAspectRatio="xMidYMid meet">

<g transform="translate(0.000000,74.000000) scale(0.100000,-0.100000)"
fill="#000000" stroke="none">
<path d="M7347 659 c-10 -46 -24 -90 -32 -98 -16 -16 -75 -19 -112 -6 -23 7
-23 7 -9 -32 12 -34 12 -43 -3 -73 -17 -35 -19 -36 -136 -61 l-60 -13 88 -17
c48 -9 89 -18 91 -20 2 -2 10 -17 19 -34 13 -25 13 -34 1 -68 -8 -22 -14 -41
-14 -43 0 -2 16 4 36 12 29 12 43 13 70 4 40 -14 46 -26 64 -128 7 -39 15 -71
17 -69 1 2 10 43 19 91 16 86 17 88 52 103 31 13 40 13 74 0 42 -17 43 -17 27
28 -13 35 -7 76 15 98 8 8 51 20 96 28 91 14 88 21 -19 40 -68 12 -74 15 -89
46 -13 27 -13 39 -4 70 6 20 10 38 8 40 -1 2 -17 -2 -35 -8 -25 -9 -42 -9 -71
1 -38 13 -39 14 -51 84 -19 115 -24 118 -42 25z m6 -170 c26 -12 47 -47 47
-80 0 -85 -122 -98 -149 -16 -24 71 36 126 102 96z"/>
<path d="M6360 390 l0 -340 45 0 45 0 0 118 0 117 184 105 184 106 -180 103
c-99 57 -182 110 -185 117 -3 9 -21 14 -49 14 l-44 0 0 -340z"/>
<path d="M373 572 c-94 -43 -105 -50 -61 -44 53 8 58 -10 58 -197 0 -185 -7
-212 -55 -222 -17 -4 28 -7 100 -6 72 0 119 2 105 4 -50 9 -50 10 -50 264 0
132 -3 239 -7 238 -5 0 -45 -17 -90 -37z"/>
<path d="M1112 594 c-30 -16 -82 -86 -82 -112 0 -6 13 3 29 19 42 41 90 40
126 -3 51 -61 21 -153 -101 -307 -35 -45 -64 -83 -64 -86 0 -3 64 -4 142 -3
l142 3 13 60 c16 81 16 82 -11 56 -20 -19 -32 -22 -99 -19 l-76 3 66 75 c126
145 141 222 60 299 -34 31 -100 38 -145 15z"/>
<path d="M1870 588 c-24 -13 -50 -34 -59 -46 l-15 -24 35 21 c45 28 90 27 117
-2 41 -44 19 -126 -40 -146 l-33 -12 45 -25 c59 -33 82 -66 88 -124 8 -83 -51
-115 -119 -65 -59 43 -77 49 -94 35 -8 -7 -15 -25 -15 -41 0 -77 158 -91 241
-22 83 71 91 218 14 269 l-26 17 24 26 c49 52 43 106 -15 141 -43 26 -93 25
-148 -2z"/>
<path d="M2663 447 c-95 -136 -113 -167 -113 -199 l0 -38 85 0 85 0 0 -55 0
-55 50 0 50 0 0 55 c0 48 2 55 20 55 16 0 20 7 20 35 0 28 -4 35 -20 35 -19 0
-20 7 -20 165 0 165 0 165 -22 164 -18 0 -48 -36 -135 -162z m54 -164 c-3 -2
-35 -3 -71 -1 l-67 3 68 97 68 97 3 -96 c1 -52 1 -97 -1 -100z"/>
<path d="M4337 599 c-142 -33 -237 -155 -237 -302 1 -117 71 -207 162 -207 46
0 106 40 127 84 61 124 -9 248 -130 232 l-48 -7 15 43 c23 65 59 104 127 137
62 30 56 37 -16 20z m-51 -240 c15 -17 20 -40 22 -109 3 -54 -1 -96 -8 -109
-17 -33 -51 -23 -72 19 -23 46 -34 169 -19 198 15 28 52 28 77 1z"/>
<path d="M5725 596 c-101 -44 -113 -159 -24 -229 l32 -25 -32 -16 c-36 -19
-71 -70 -71 -104 0 -46 31 -94 74 -113 173 -79 321 108 190 239 l-34 34 37 33
c34 29 38 38 38 78 0 31 -6 52 -20 67 -42 47 -128 63 -190 36z m109 -35 c25
-28 30 -81 12 -125 l-16 -38 -31 23 c-35 24 -69 75 -69 102 0 24 36 57 63 57
13 0 32 -8 41 -19z m-40 -262 c76 -60 74 -179 -4 -179 -37 0 -61 31 -67 83 -6
51 12 117 31 117 8 0 25 -9 40 -21z"/>
<path d="M3401 482 c-22 -66 -41 -122 -41 -125 0 -4 16 -7 36 -7 146 0 260
-119 194 -202 -29 -38 -65 -36 -126 7 -53 38 -75 43 -94 20 -36 -43 32 -89
122 -82 68 6 114 30 145 76 83 123 1 261 -169 286 -43 6 -46 9 -37 26 8 17 22
19 107 19 l98 0 16 50 16 50 -113 0 -112 0 -42 -118z"/>
<path d="M4886 529 c-21 -93 -20 -95 8 -62 23 26 30 28 115 31 50 2 91 0 91
-5 0 -5 -29 -95 -64 -201 l-65 -193 26 3 c24 3 30 18 103 228 42 124 80 235
84 248 l7 22 -144 0 -145 0 -16 -71z"/>
</g>
</svg>
